<?xml version="1.0" encoding="UTF-8" standalone="no"?>
<!DOCTYPE svg PUBLIC "-//W3C//DTD SVG 1.1//EN" "http://www.w3.org/Graphics/SVG/1.1/DTD/svg11.dtd">
<svg width="100%" height="100%" viewBox="0 0 264 75" version="1.1" xmlns="http://www.w3.org/2000/svg" xmlns:xlink="http://www.w3.org/1999/xlink" xml:space="preserve" xmlns:serif="http://www.serif.com/" style="fill-rule:evenodd;clip-rule:evenodd;stroke-linejoin:round;stroke-miterlimit:2;">
    <g transform="matrix(0.44,0,0,0.439647,0,0)">
        <path id="polyline2177" d="M29.219,0C23.576,0 18.087,4.642 17.081,10.39L13.064,30.349C12.958,32.863 13.31,36.295 14.094,36.935C15.092,42.472 33.554,68.112 33.023,72.015C32.527,75.93 30.349,87.45 30.349,87.45C29.679,91.331 27.029,94.441 23.15,94.441C19.265,94.441 16.615,91.343 17.285,87.45L20.782,68.314L6.995,68.314L2.365,94.859C1.421,100.246 5.072,104.527 10.492,104.527L30.144,104.527C35.589,104.527 40.771,100.246 41.769,94.859C41.769,94.859 46.831,70.065 46.807,68.314C46.789,66.55 46.297,66.358 46.297,66.358C46.297,64.342 29.868,37.22 28.188,36.21C27.467,35.79 26.872,33.104 26.848,31.481C26.818,29.868 29.012,19.031 29.012,19.031C29.679,15.149 33.356,12.036 37.241,12.036C41.123,12.036 42.745,15.149 42.075,19.031L39.095,36.21L52.982,36.21L57.819,10.387C58.913,4.642 55.232,0 49.59,0L29.219,0ZM67.079,0L50.62,94.862C49.677,100.249 53.324,104.53 58.747,104.53L78.4,104.53C83.841,104.53 89.12,100.249 90.127,94.862L107.718,0L95.372,0L78.601,92.185C78.358,93.525 77.057,94.654 75.723,94.654L65.946,94.654C64.579,94.654 63.666,93.534 63.888,92.185L80.248,0L67.079,0ZM114.406,0L94.549,104.53L107.718,104.53L116.774,57.203L133.542,57.203C138.998,57.203 144.169,52.889 145.166,47.531L152.368,10.39C153.456,4.63 149.784,0 144.142,0L114.406,0ZM161.424,0L140.849,104.53L170.479,104.53L172.534,91.566L157.926,91.566L163.896,56.278L178.504,56.278L180.56,45.371L165.955,45.371L172.435,12.964L187.046,12.964L189.098,0L161.424,0ZM196.817,0L177.065,104.53L190.234,104.53L199.185,57.203L208.55,57.203C209.778,58.351 209.926,60.463 210.088,61.524C210.331,63.062 210.59,65.027 210.4,66.565C210.229,68.091 203.196,104.527 203.196,104.527L216.367,104.527C216.367,104.527 223.774,64.835 223.774,64.198C223.798,63.549 223.774,61.515 223.058,60.391C222.575,59.67 221.745,58.014 220.79,57.41C218.951,56.23 216.878,55.451 216.878,55.451L215.95,55.451C219.72,53.967 226.823,51.521 227.58,47.531L234.779,10.39C235.873,4.63 232.195,0 226.55,0L196.817,0ZM267.294,0L247.434,104.53L262.559,104.53L274.799,43.932L279.637,104.53L292.808,104.53L312.665,0L297.54,0L287.253,54.631L280.46,0L267.294,0ZM319.555,0L299.701,104.53L312.87,104.53L332.723,0L319.555,0ZM339.613,0L319.759,104.53L334.989,104.53L347.232,43.932L352.066,104.53L365.238,104.53L385.092,0L369.865,0L359.68,54.631L352.89,0L339.613,0ZM390.65,0L388.178,12.964L396.407,12.964L380.153,104.53L395.175,104.53L411.739,12.964L419.659,12.964L421.717,0L390.65,0ZM426.864,0L406.289,104.53L435.917,104.53L437.975,91.566L423.367,91.566L429.439,56.278L444.044,56.278L446.105,45.371L431.494,45.371L437.87,12.964L452.48,12.964L454.539,0L426.864,0ZM460.301,0L440.444,104.53L455.668,104.53L467.915,43.932L472.752,104.53L485.921,104.53L505.778,0L490.551,0L480.362,54.631L473.572,0L460.301,0ZM512.673,0L492.81,104.53L522.852,104.53C528.309,104.53 533.572,100.249 534.585,94.862L550.527,10.393C551.609,4.63 547.943,0 542.298,0L512.673,0ZM569.152,0C563.503,0 558.122,4.642 557.113,10.39L542.397,94.859C541.444,100.249 545.011,104.53 550.428,104.53L572.135,104.53C577.577,104.53 582.853,100.246 583.865,94.859L599.807,10.39C600.904,4.642 597.214,0 591.581,0L569.152,0ZM523.883,12.039L529.955,12.039C533.837,12.039 536.487,15.149 535.817,19.034L522.852,87.453C522.176,91.334 518.403,94.552 514.518,94.552L508.551,94.552L523.883,12.039ZM576.868,12.039L577.279,12.039C581.161,12.039 583.709,15.149 583.039,19.034L570.696,87.453C570.023,91.322 566.445,94.552 562.569,94.552C558.681,94.552 557.062,91.334 557.729,87.453L569.972,19.034L570.071,18.724L570.176,18.415L570.276,18.003L570.378,17.694L570.483,17.282L570.582,16.973L570.687,16.663L570.889,16.357L570.991,16.047L571.201,15.738L571.303,15.431L571.508,15.122L571.718,14.914L571.919,14.608L572.129,14.299L572.436,14.091L572.643,13.884L572.851,13.677L573.154,13.469L573.466,13.265L573.674,13.061L573.98,12.853L574.29,12.751L574.599,12.544L574.806,12.442L575.215,12.337L575.522,12.237L575.831,12.237L576.137,12.132L576.552,12.132L576.868,12.039ZM127.058,12.451L133.44,12.451C134.84,12.451 137.811,15.657 137.556,17.081L132.1,42.905C131.847,44.242 130.045,47.324 128.711,47.324L120.868,47.45L119.55,46.813C119.55,46.813 118.606,45.591 118.928,44.86L125.102,13.274C125.67,12.808 126.361,12.451 127.058,12.451ZM209.054,12.451L215.436,12.451C216.839,12.451 219.826,15.657 219.549,17.081L214.093,42.799C213.856,44.148 210.506,47.327 209.16,47.327L203.499,47.327C202.33,47.327 201.525,46.558 201.441,45.479C201.441,45.308 201.417,45.062 201.441,44.86L207.513,13.274L207.612,13.172L207.717,13.073L207.919,12.968L208.021,12.968L208.123,12.865L208.225,12.763L208.327,12.763L208.429,12.661L208.535,12.661L208.739,12.559L209.042,12.559L209.042,12.457L209.054,12.457L209.054,12.451ZM0,113.583L0,147.846L587.257,147.846L587.257,113.583L0,113.583ZM431.704,117.185L436.737,117.185C437.96,117.185 438.834,118.162 438.588,119.448L437.455,125.21L434.679,125.21L435.292,121.404C435.433,120.544 434.925,119.859 434.06,119.859C433.201,119.859 432.35,120.541 432.209,121.404L431.698,124.186C431.608,124.348 431.866,125.129 432.002,125.213C432.383,125.433 436.016,131.454 436.016,131.898C436.1,132.121 436.151,132.229 436.115,132.313C436.013,133.064 434.982,138.175 434.982,138.175C434.763,139.347 433.621,140.332 432.413,140.332L428.09,140.332C426.891,140.332 426.119,139.347 426.341,138.175L427.375,132.313L430.355,132.313L429.64,136.531C429.502,137.388 430.001,138.175 430.869,138.175C431.704,138.175 432.591,137.394 432.726,136.531L433.342,133.133C432.792,131.715 429.15,126.541 428.916,125.312C428.757,125.174 428.691,124.432 428.712,123.873C428.745,123.263 429.535,119.448 429.535,119.448L429.64,119.448L429.64,119.144L429.739,118.937L429.739,118.838L429.838,118.733L429.838,118.63L429.941,118.531L429.941,118.426L430.043,118.327L430.148,118.222L430.148,118.123L430.247,118.123L430.352,118.02L430.451,117.915L430.554,117.816L430.554,117.711L430.656,117.711L430.755,117.612L430.854,117.51L430.959,117.51L431.061,117.408L431.163,117.408L431.266,117.308L431.575,117.308L431.704,117.185ZM455.362,117.185L459.066,117.185L459.58,125.931L464.312,117.185L468.02,117.185L460.406,130.561L458.556,140.332L455.263,140.332L456.912,129.837L455.362,117.185ZM489.006,117.185L494.042,117.185C495.262,117.185 496.115,118.162 495.893,119.448L494.76,125.21L491.981,125.21L492.6,121.404C492.738,120.544 492.236,119.859 491.365,119.859C490.506,119.859 489.649,120.541 489.514,121.404L489,124.186C488.892,124.348 489.139,125.129 489.307,125.213C489.67,125.433 493.321,131.454 493.321,131.898C493.429,132.121 493.426,132.229 493.426,132.313C493.285,133.064 492.396,138.175 492.396,138.175C492.173,139.347 491.019,140.332 489.818,140.332L485.398,140.332C484.199,140.332 483.424,139.347 483.643,138.175L484.674,132.313L487.66,132.313L486.942,136.531C486.801,137.391 487.336,138.178 488.174,138.178C489.03,138.178 489.857,137.397 490.025,136.531L490.641,133.136C490.079,131.718 486.456,126.544 486.218,125.315C486.062,125.174 485.996,124.435 486.014,123.876C486.044,123.263 486.837,119.451 486.837,119.451L486.936,119.348L486.936,119.147L487.038,118.94L487.038,118.838L487.141,118.733L487.141,118.633L487.243,118.531L487.243,118.426L487.345,118.327L487.447,118.222L487.447,118.123L487.552,118.123L487.648,118.02L487.751,117.915L487.853,117.816L487.955,117.711L488.057,117.612L488.159,117.51L488.261,117.51L488.366,117.408L488.466,117.408L488.568,117.308L488.871,117.308L489.006,117.185ZM512.976,117.185L519.875,117.185L519.358,119.964L517.606,119.964L514.007,140.335L510.612,140.335L514.211,119.964L512.463,119.964L512.976,117.185ZM539.93,117.185L546.104,117.185L545.588,119.964L542.397,119.964L540.961,127.268L544.25,127.268L543.734,129.633L540.543,129.633L539.209,137.454L542.394,137.454L541.985,140.332L535.399,140.332L539.93,117.185ZM565.345,117.185L569.152,117.185L569.765,130.561L575.63,117.287L579.331,117.185L575.428,140.332L572.547,140.332L574.395,128.092L569.248,140.332L567.19,140.332L566.577,127.779L564.312,140.332L560.914,140.332L565.345,117.185ZM12.757,118.011L18.829,118.011L18.415,120.887L15.125,120.887L13.788,128.092L16.979,128.092L16.564,130.564L13.271,130.564L12.039,138.382L15.227,138.382L14.713,141.263L8.127,141.263L12.757,118.011ZM41.153,118.011L44.034,118.011L45.576,130.15L47.838,118.011L51.236,118.011L46.807,141.257L43.929,141.257L42.796,127.776L40.122,141.257L36.727,141.257L41.153,118.011ZM72.018,118.011L78.809,118.011L78.4,120.887L76.648,120.887L72.944,141.26L69.657,141.26L73.253,120.887L71.402,120.887L72.018,118.011ZM101.958,118.011L108.13,118.011L107.616,120.887L104.425,120.887L102.986,128.092L106.174,128.092L105.762,130.564L102.574,130.564L101.237,138.382L104.428,138.382L104.016,141.263L97.434,141.263L101.958,118.011ZM130.973,118.011L137.556,118.011C138.776,118.011 139.548,119.09 139.305,120.373L137.763,128.602C137.592,129.495 136.024,130.222 135.188,130.561L135.603,130.561L135.603,130.66L136.015,130.66L136.117,130.763L136.426,130.763L136.426,130.862L136.633,130.862L136.633,130.967L136.736,130.967C136.874,131.216 136.94,131.955 136.94,132.097C136.94,132.235 135.29,141.254 135.29,141.254L132.307,141.254C132.307,141.254 133.902,133.154 133.956,132.821C133.99,132.46 133.917,132.025 133.854,131.691C133.83,131.442 133.818,131.015 133.545,130.763L131.487,130.763L129.531,141.254L126.547,141.254L130.973,118.011ZM160.393,118.011L167.286,118.011L166.877,120.887L165.128,120.887L161.424,141.26L158.131,141.26L161.733,120.887L159.882,120.887L160.393,118.011ZM194.654,118.011L198.566,118.011L197.331,141.257L193.419,141.257L193.933,135.906L191.568,135.906L189.612,141.257L186.118,141.257L194.654,118.011ZM222.025,118.011L225.005,118.011L220.58,141.257L217.698,141.257L222.025,118.011ZM248.567,118.011L251.448,118.011L252.989,130.15L255.258,118.011L258.548,118.011L254.227,141.257L251.244,141.257L250.213,127.776L247.536,141.257L244.144,141.257L248.567,118.011ZM282.623,118.011L286.43,118.011L287.043,131.49L292.914,118.117L296.612,118.117L292.703,141.263L289.822,141.263L291.673,129.02L286.526,141.263L284.468,141.263L283.852,128.714L281.592,141.263L278.297,141.263L282.623,118.011ZM319.969,118.011L326.038,118.011L325.624,120.887L322.334,120.887L321,128.092L324.188,128.092L323.773,130.564L320.486,130.564L319.149,138.382L322.436,138.382L321.922,141.263L315.444,141.263L319.969,118.011ZM349.801,118.011L352.682,118.011L354.227,130.15L356.489,118.011L359.779,118.011L355.462,141.257L352.58,141.257L351.448,127.776L348.771,141.257L345.375,141.257L349.801,118.011ZM380.36,118.011L387.252,118.011L386.739,120.887L384.99,120.887L381.391,141.26L378.095,141.26L381.7,120.887L379.849,120.887L380.36,118.011ZM133.749,120.785C133.587,120.785 133.452,120.881 133.335,120.992L131.998,127.986L131.998,128.092C131.998,128.314 132.154,128.5 132.409,128.5L133.644,128.5C133.95,128.5 134.72,127.884 134.777,127.575L135.906,121.812C135.96,121.482 135.393,120.782 135.083,120.782L133.749,120.785ZM194.654,127.779L192.493,133.644L194.14,133.644L194.654,127.779Z" style="fill:white;fill-rule:nonzero;"/>
        <g transform="matrix(2.27273,0,0,2.27455,1.33227e-15,2.27455)">
            <text x="0.976px" y="73.035px" style="font-family:'ArialMT', 'Arial', sans-serif;font-size:10px;fill:white;">W<tspan x="31.414px 55.192px 83.414px 111.084px 138.754px 166.976px 195.197px 222.867px 250.537px " y="73.035px 73.035px 73.035px 73.035px 73.035px 73.035px 73.035px 73.035px 73.035px ">IDESCREEN</tspan></text>
        </g>
    </g>
</svg>
